PathFileType	4	(X/Y/Z)	D:\Documents\Paper\paper_current\paper_step_1_data\data_step_3\marker\30DL\subject_01.tsv
DataRate	CameraRate	NumFrames	NumMarkers	Units	OrigDataRate	OrigDataStartFrame	OrigNumFrames
200	200	11	43	mm	200	695	200
Frame#	Time	Top.Head			L.Acromium			R.Acromium			Sternum			L.ASIS			R.ASIS			V.Sacral			R.Knee.Lat			R.Knee.Med			L.Knee.Lat			L.Knee.Med			L.Ankle.Lat			L.Toe.Tip			R.Heel			R.Ankle.Med			R.Ankle.Lat			L.Toe.Med			L.Toe.Lat			L.Heel			L.Ankle.Med			L.Shank1			L.Shank2			R.Toe.Tip			R.Toe.Med			R.Toe.Lat			L.Thigh2			L.Thigh1			L.Thigh3			R.Thigh3			R.Thigh1			R.Thigh2			R.Shank1			R.Shank2			R.Shank3			L.Shank3			L.Shank4			R.Shank4			L.Thigh4			R.Thigh4			R.Heel.Lat			R.Heel.Med			L.Heel.Lat			L.Heel.Med		
		X1	Y1	Z1	X2	Y2	Z2	X3	Y3	Z3	X4	Y4	Z4	X5	Y5	Z5	X6	Y6	Z6	X7	Y7	Z7	X8	Y8	Z8	X9	Y9	Z9	X10	Y10	Z10	X11	Y11	Z11	X12	Y12	Z12	X13	Y13	Z13	X14	Y14	Z14	X15	Y15	Z15	X16	Y16	Z16	X17	Y17	Z17	X18	Y18	Z18	X19	Y19	Z19	X20	Y20	Z20	X21	Y21	Z21	X22	Y22	Z22	X23	Y23	Z23	X24	Y24	Z24	X25	Y25	Z25	X26	Y26	Z26	X27	Y27	Z27	X28	Y28	Z28	X29	Y29	Z29	X30	Y30	Z30	X31	Y31	Z31	X32	Y32	Z32	X33	Y33	Z33	X34	Y34	Z34	X35	Y35	Z35	X36	Y36	Z36	X37	Y37	Z37	X38	Y38	Z38	X39	Y39	Z39	X40	Y40	Z40	X41	Y41	Z41	X42	Y42	Z42	X43	Y43	Z43
1293	6.46	6.623	1920.423	327.994	-178.236	1669.254	159.403	-211.701	1688.681	485.32	-79.134	1617.428	340.826	-37.571	1175.503	245.807	-57.124	1212.102	479.036	-215.296	1221.619	353.353	5.715	768.629	543.997	14.327	751.992	430.418	-165.505	734.72	259.994	-153.755	731.287	371.538	-280.304	375.982	320.526	-97.691	328.314	303.114	13.492	338.437	512.156	115.492	413.124	488.554	77.067	398.919	571.717	-133.485	318.772	366.445	-187.358	321.47	275.612	-367.741	313.916	380.503	-261.33	388.915	406.233	-163.957	643.112	262.358	-179.952	562.44	259.494	289.488	352.033	575.654	238.863	345.25	519.889	191.201	324.075	614.913	-77.627	863.983	243.917	-70.637	945.035	226.391	-128.638	945.891	201.517	-73.318	926.64	549.455	-10.906	942.464	555.314	14.408	863.156	549.064	60.956	696.15	571.857	76.394	609.964	579.5	-1.949	683.801	575.95	-225.143	655.705	249.283	-244.156	569.815	250.751	13.14	602.764	585.437	-135.659	858.292	217.81	-46.413	844.966	543.099	47.778	326.873	568.817	84.138	333.729	474.879	-326.247	302.675	318.819	-295.804	308.311	419.209
1294	6.465	7.973	1920.071	328.519	-176.872	1668.933	159.826	-210.329	1688.187	485.798	-77.639	1617.071	341.267	-35.975	1175.235	245.915	-55.501	1211.633	479.258	-213.676	1221.268	353.566	6.68	767.969	544.101	15.242	751.312	430.527	-164.345	734.491	260.148	-152.699	731.045	371.653	-280.196	376.032	320.561	-97.671	328.277	303.116	13.341	337.909	512.22	115.641	412.212	488.62	77.109	398.164	571.821	-133.465	318.745	366.46	-187.339	321.466	275.615	-367.714	314.004	380.496	-261.215	388.911	406.281	-163.035	642.846	262.512	-179.226	562.233	259.604	289.404	350.397	575.637	238.734	343.855	519.891	191.027	322.785	614.904	-76.291	863.66	244.129	-69.162	944.739	226.568	-127.203	945.617	201.682	-72.103	926.09	549.542	-9.667	941.902	555.426	15.539	862.533	549.184	61.74	695.319	571.976	77.06	609.07	579.508	-1.15	683.215	576.123	-224.186	655.597	249.421	-243.397	569.76	250.703	13.729	602.133	585.528	-134.198	858.027	217.96	-45.253	844.459	543.244	47.577	326.172	568.879	83.959	332.945	474.918	-325.701	302.774	319.046	-295.787	308.327	419.213
1295	6.47	9.339	1919.693	329.06	-175.402	1668.623	160.182	-208.933	1687.693	486.291	-76.138	1616.708	341.717	-34.301	1174.922	246.154	-53.87	1211.159	479.489	-212.039	1220.915	353.781	7.649	767.302	544.21	16.168	750.63	430.643	-163.185	734.266	260.298	-151.651	730.802	371.759	-280.086	376.088	320.595	-97.651	328.241	303.117	13.211	337.371	512.278	115.806	411.298	488.688	77.171	397.395	571.923	-133.445	318.719	366.475	-187.319	321.462	275.617	-367.687	314.092	380.492	-261.097	388.91	406.326	-162.112	642.587	262.659	-178.518	562.02	259.711	289.328	348.776	575.641	238.626	342.473	519.911	190.861	321.502	614.905	-74.948	863.34	244.343	-67.746	944.356	226.819	-125.754	945.347	201.853	-70.924	925.613	549.742	-8.374	941.304	555.541	16.657	861.838	549.369	62.544	694.397	571.974	77.629	608.173	579.627	-0.351	682.481	576.193	-223.221	655.514	249.523	-242.719	569.756	250.706	14.337	601.451	585.633	-132.892	857.736	218.113	-44.125	843.902	543.361	47.41	325.424	568.891	83.802	332.16	474.959	-326.21	302.807	318.826	-295.77	308.345	419.216
1296	6.475	10.746	1919.305	329.628	-173.866	1668.322	160.514	-207.514	1687.197	486.796	-74.636	1616.338	342.177	-32.648	1174.533	246.334	-52.232	1210.68	479.729	-210.384	1220.56	353.999	8.62	766.63	544.324	17.104	749.947	430.766	-162.023	734.044	260.445	-150.609	730.556	371.859	-279.977	376.15	320.626	-97.632	328.207	303.118	13.106	336.823	512.332	115.986	410.385	488.761	77.255	396.613	572.023	-133.426	318.696	366.49	-187.299	321.458	275.618	-367.663	314.176	380.493	-260.977	388.911	406.368	-161.188	642.333	262.799	-177.826	561.797	259.817	289.264	347.175	575.666	238.54	341.106	519.949	190.706	320.228	614.917	-73.6	863.023	244.556	-66.311	944.052	227.024	-124.294	945.08	202.028	-69.619	925.024	549.79	-7.059	940.626	555.674	17.827	861.186	549.401	63.354	693.625	572.077	78.107	607.352	580.664	0.431	681.856	576.301	-222.244	655.396	249.657	-242.039	569.732	250.722	14.914	600.778	585.78	-131.455	857.508	218.308	-43.084	843.329	543.514	47.277	324.721	568.918	83.671	331.375	475	-325.665	302.886	319.054	-295.753	308.367	419.217
1297	6.48	12.179	1918.931	330.205	-172.267	1668.028	160.826	-206.074	1686.701	487.31	-73.131	1615.961	342.646	-31.021	1174.117	246.592	-50.585	1210.195	479.978	-208.712	1220.203	354.219	9.593	765.952	544.446	18.05	749.265	430.897	-160.86	733.821	260.588	-149.569	730.307	371.956	-279.868	376.212	320.652	-97.615	328.177	303.118	13.026	336.268	512.382	116.182	409.474	488.839	77.358	395.821	572.125	-133.408	318.676	366.504	-187.28	321.453	275.618	-367.642	314.251	380.496	-260.858	388.915	406.406	-160.259	642.081	262.934	-177.148	561.563	259.924	289.213	345.594	575.711	238.477	339.756	520.002	190.564	318.965	614.942	-72.247	862.708	244.763	-64.869	943.694	227.226	-122.825	944.811	202.204	-68.318	924.539	550.005	-5.762	939.981	555.829	18.953	860.492	549.642	64.142	692.759	572.149	78.921	606.522	579.781	1.232	681.217	576.403	-221.31	655.317	249.748	-241.37	569.628	250.773	15.509	600.063	585.829	-130.261	857.243	218.5	-41.934	842.764	543.673	47.138	324.008	568.941	83.565	330.592	475.042	-325.66	302.943	319.043	-295.738	308.391	419.217
1298	6.485	13.658	1918.562	330.779	-170.598	1667.74	161.112	-204.613	1686.204	487.832	-71.621	1615.579	343.124	-29.37	1173.785	246.75	-48.932	1209.703	480.235	-207.024	1219.843	354.444	10.569	765.271	544.575	19.006	748.584	431.035	-159.695	733.594	260.728	-148.529	730.054	372.054	-279.762	376.273	320.672	-97.601	328.151	303.118	12.971	335.706	512.429	116.395	408.566	488.922	77.48	395.022	572.226	-133.392	318.661	366.516	-187.262	321.447	275.617	-367.626	314.318	380.503	-260.739	388.921	406.441	-159.326	641.825	263.068	-176.477	561.319	260.033	289.179	344.035	575.778	238.439	338.424	520.071	190.436	317.715	614.979	-70.891	862.397	244.958	-63.412	943.454	227.423	-121.348	944.538	202.381	-67.023	924.063	550.19	-4.449	939.404	556.008	20.112	859.761	549.756	64.936	692.042	572.339	79.476	605.715	579.887	1.985	680.445	576.449	-220.351	655.239	249.831	-240.593	569.672	250.747	16.098	599.352	585.899	-128.834	857.015	218.662	-40.823	842.27	543.779	47.034	323.231	568.988	83.486	329.811	475.086	-326.172	302.982	318.834	-295.724	308.418	419.215
1299	6.49	15.144	1918.157	331.362	-168.878	1667.457	161.397	-203.131	1685.704	488.359	-70.102	1615.192	343.613	-27.277	1174.434	246.253	-47.274	1209.205	480.5	-205.322	1219.48	354.673	11.548	764.588	544.711	19.973	747.906	431.18	-158.528	733.362	260.869	-147.48	729.793	372.156	-279.657	376.328	320.688	-97.589	328.129	303.116	12.942	335.14	512.474	116.625	407.663	489.011	77.621	394.217	572.329	-133.379	318.65	366.527	-187.246	321.441	275.614	-367.615	314.376	380.509	-260.621	388.928	406.473	-158.386	641.561	263.203	-175.804	561.066	260.147	289.162	342.499	575.864	238.424	337.111	520.155	190.324	316.479	615.029	-69.534	862.087	245.138	-61.932	943.053	227.665	-119.865	944.259	202.556	-65.809	923.585	550.333	-3.124	938.756	556.224	21.285	859.095	549.887	65.717	691.13	572.375	79.986	604.737	580.851	2.757	679.815	576.59	-219.289	655.178	249.898	-239.748	569.698	250.703	16.714	598.625	585.991	-127.473	856.747	218.822	-39.667	841.619	543.959	46.957	322.504	569.01	83.435	329.033	475.131	-325.629	303.054	319.051	-295.712	308.447	419.211
1300	6.495	16.674	1917.746	331.987	-167.14	1667.175	161.716	-201.626	1685.2	488.894	-68.568	1614.801	344.114	-25.945	1173.09	247.257	-45.617	1208.7	480.772	-203.607	1219.113	354.908	12.532	763.905	544.856	20.952	747.232	431.331	-157.356	733.121	261.012	-146.42	729.525	372.267	-279.555	376.376	320.7	-97.58	328.111	303.114	12.939	334.57	512.517	116.872	406.765	489.105	77.781	393.408	572.432	-133.369	318.642	366.535	-187.232	321.433	275.608	-367.607	314.429	380.514	-260.504	388.935	406.502	-157.438	641.284	263.342	-175.123	560.809	260.265	289.163	340.986	575.97	238.433	335.814	520.252	190.23	315.256	615.09	-68.175	861.778	245.297	-60.503	942.723	227.869	-118.378	943.972	202.73	-64.44	923.012	550.476	-1.839	938.156	556.372	22.417	858.419	550.09	66.134	689.67	571.818	80.766	603.955	580.191	3.566	679.192	576.788	-218.359	655.066	250.013	-238.957	569.672	250.791	17.381	597.912	586.079	-126.092	856.49	218.981	-38.492	841.059	544.135	46.897	321.888	569.037	83.412	328.26	475.178	-326.164	303.086	318.82	-295.703	308.479	419.206
1301	6.5	18.257	1917.343	332.596	-165.404	1666.891	162.092	-200.1	1684.692	489.435	-67.014	1614.406	344.627	-24.27	1172.786	247.473	-43.967	1208.185	481.047	-201.884	1218.74	355.149	13.524	763.224	545.011	21.945	746.561	431.49	-156.175	732.869	261.16	-145.344	729.248	372.389	-279.455	376.417	320.709	-97.573	328.095	303.112	12.962	333.994	512.559	117.137	405.873	489.206	77.961	392.595	572.537	-133.361	318.636	366.542	-187.219	321.426	275.6	-367.601	314.481	380.514	-260.387	388.942	406.53	-156.482	640.995	263.487	-174.427	560.553	260.389	289.181	339.497	576.094	238.466	334.534	520.363	190.157	314.048	615.163	-66.816	861.469	245.433	-58.997	942.35	228.115	-116.887	943.674	202.903	-63.216	922.468	550.667	-0.515	937.52	556.574	23.596	857.779	550.26	66.967	688.925	571.954	81.27	603.163	581.246	4.404	678.494	576.901	-217.361	654.939	250.128	-238.254	569.642	250.968	18.014	597.282	586.298	-124.817	856.228	219.169	-37.418	840.536	544.307	46.876	321.12	569.11	83.418	327.492	475.227	-326.147	303.123	318.817	-295.694	308.512	419.201
1302	6.505	19.825	1916.932	333.267	-163.674	1666.602	162.529	-198.55	1684.178	489.984	-65.436	1614.008	345.154	-22.5	1172.368	247.779	-42.331	1207.658	481.323	-200.154	1218.36	355.397	14.528	762.547	545.174	22.956	745.893	431.655	-154.985	732.605	261.315	-144.249	728.961	372.524	-279.357	376.454	320.717	-97.567	328.08	303.111	13.013	333.413	512.602	117.42	404.987	489.314	78.162	391.776	572.644	-133.356	318.63	366.548	-187.209	321.419	275.591	-367.594	314.534	380.511	-260.27	388.947	406.558	-155.515	640.692	263.638	-173.715	560.296	260.517	289.218	338.031	576.234	238.521	333.27	520.485	190.104	312.852	615.247	-65.454	861.16	245.548	-57.507	942.09	228.31	-115.391	943.364	203.075	-61.932	921.974	550.852	0.797	936.811	556.793	24.841	857.091	550.501	67.808	688.092	572.165	81.919	602.265	581.353	5.216	677.878	577.078	-216.356	654.814	250.238	-237.505	569.53	251.121	18.8	596.933	586.995	-123.409	855.944	219.312	-36.276	839.937	544.458	46.844	320.368	569.155	83.454	326.73	475.278	-326.13	303.139	318.795	-295.687	308.545	419.196
1303	6.51	21.44	1916.552	333.877	-161.945	1666.31	163.02	-196.977	1683.657	490.542	-63.83	1613.606	345.696	-20.35	1172.938	247.346	-40.713	1207.117	481.598	-198.42	1217.972	355.656	15.548	761.876	545.347	23.985	745.227	431.827	-153.783	732.329	261.479	-143.134	728.664	372.671	-279.267	376.491	320.72	-97.563	328.065	303.111	13.09	332.825	512.646	117.722	404.106	489.429	78.387	390.951	572.754	-133.352	318.622	366.555	-187.201	321.411	275.581	-367.585	314.592	380.503	-260.152	388.95	406.587	-154.537	640.377	263.797	-172.988	560.037	260.651	289.273	336.588	576.388	238.597	332.02	520.617	190.072	311.669	615.34	-64.088	860.845	245.652	-56.016	941.608	228.566	-113.89	943.042	203.248	-60.592	921.42	550.976	2.106	936.223	557.015	25.986	856.402	550.727	68.688	687.295	572.303	82.574	601.43	581.464	6.085	677.199	577.18	-215.267	654.702	250.311	-236.705	569.377	251.236	19.471	596.249	587.101	-121.971	855.671	219.485	-35.074	839.367	544.597	46.832	319.652	569.197	83.518	325.973	475.335	-326.131	303.166	318.782	-295.681	308.579	419.192
